<svg xmlns="http://www.w3.org/2000/svg" viewBox="0 0 62.92 74.98">
  <title>user</title>
  <path d="M50.33,27.74c1.54-8.18.14-16.78-5-22C42.43,2.27,37.37,0,31.59,0a18.56,18.56,0,0,0-12.5,4.44c-7,5.74-6.55,16.66-5.92,23.69,0.9,9.91-2.79,13.61-2.79,13.61a35.71,35.71,0,0,0,12.11-3c9.18,8.11,17.92.2,17.92,0.2,3.81,2.5,11.62,2.8,11.62,2.8S48.43,37.85,50.33,27.74Zm-8.89,4.7c-4.87,8.51-13.89,6.76-18.59,2.18l-0.35-.35-0.05-.06C22.28,34,22.12,33.86,22,33.67s-0.49-.63-0.72-1L21,32.41a0.15,0.15,0,0,0,0-.06L20.78,32h0a18.3,18.3,0,0,1-1.72-3.86l0,0c-0.1-.35-0.2-0.69-0.27-1l-0.07-.29c0-.07,0-0.13,0-0.2a0.85,0.85,0,0,1,0-.12c-0.77-3.87,0-7.24,2.18-7.52a12.33,12.33,0,0,0,6.1-3c-2.8,3.8-1.3,8.4-1.3,8.4s-0.3-2.6,5.81-5,7.31-5.71,7.31-5.71c2,5.41,5.9,5.71,5.9,5.71S44.64,26.83,41.44,32.44Z"/>
  <path d="M42.54,45H40.13L39.08,46l-7.58,7.4L22.71,45H20.37C9.1,45,0,53.4,0,64.68V68c0,0.13,0,.31,0,0.63C0.42,72.54,3.22,75,6.32,75H56.6c3.1,0,5.9-2.44,6.31-6.34,0-.31,0-0.49,0-0.63V64.68C62.92,53.4,53.82,45,42.54,45Z"/>
</svg>
