<svg id="flekk" data-name="Layer 1" xmlns="http://www.w3.org/2000/svg" viewBox="0 0 389.18 200.99"><defs><style>.cls-1{fill:none}.cls-2{clip-path:url(#clip-path)}.cls-3{fill:#fff}</style><clipPath id="clip-path"><path class="cls-1" d="M0 0h389.18v200.99H0z"/></clipPath></defs><title>logoflekk</title><path class="cls-2 cls-3" d="M38.24 7a2 2 0 0 0 2.21 1.8c1.3 0 2.6-.06 3.9-.12l149.15-6.5c1.08 0 2.17-.08 3.25-.14a4.58 4.58 0 0 1 3.89 1.11 3.34 3.34 0 0 0 2.7.79l3.25-.12L273.2.91c1 0 2-.07 2.93-.12a4.14 4.14 0 0 1 3.29 1 3.49 3.49 0 0 0 2.7.81l2.88-.14L339 .1c1.08 0 2.17-.08 3.25-.1a2.69 2.69 0 0 1 2.09.67c1.24 1.31 2.84 1.28 4.49 1.2q8.77-.4 17.55-.77L369 1a3.56 3.56 0 0 1 2.71.79 4.57 4.57 0 0 0 3.62 1c2.82-.13 5.63-.26 8.45-.36 3.55-.12 4 .24 4.13 3.51.43 9.72.84 19.45 1.29 29.17.07 1.49 0 2.84-1.32 3.93a2.92 2.92 0 0 0-.78 2.57c.08 1.64.15 3.28.23 4.91.28 5.42.53 10.85.85 16.26.09 1.48 0 2.84-1.24 4-1 .86-.85 2-.79 3.18q.25 5.37.49 10.75c.24 5.42.47 10.85.74 16.27.07 1.47.07 2.85-1.25 3.94a2.84 2.84 0 0 0-.8 2.56q1 20.72 1.93 41.44c0 .72.07 1.43.09 2.15a2.64 2.64 0 0 1-.77 2.28c-1.43 1.17-1.39 2.65-1.31 4.23.42 8.7.79 17.4 1.17 26.1a3.67 3.67 0 0 0 0 .61c.49 2.24-.85 3.7-2.43 5a1.32 1.32 0 0 1-1.78.08c-1.49-1.46-3.34-1.22-5.18-1.14q-9.1.39-18.2.8c-1.65.08-3.26.13-4.5-1.2a1.72 1.72 0 0 0-1.15-.5c-1.85.06-3-1.09-4.14-2.12s-2.2-2-3.34-2.9-1.6-.82-2.52 0c-.46.43-.89.9-1.32 1.37-.29.31-.53.66-.85.94a2.2 2.2 0 0 1-1 .7c-2.77.14-4.21 3.42-7.32 2.78a8.05 8.05 0 0 0-1.94.08 3.54 3.54 0 0 0-2.64 1 4.47 4.47 0 0 1-3.51 1.32c-1 0-2 .09-2.92.13L91 196.72c-.76 0-1.52 0-2.28.1-1.54.1-3 .07-4.24-1.06a1.22 1.22 0 0 0-1.76.07c-1.22 1.31-2.8 1.39-4.45 1.46q-11.86.49-23.72 1l-2.92.15a4.4 4.4 0 0 0-2.63 1c-2.3 1.83-4.77 2-7 .42a5.49 5.49 0 0 0-3.66-.88l-14.95.65c-.87 0-1.73.09-2.6.11-3 .06-5.22-1.35-6.08-4a5.28 5.28 0 0 0-1.74-2.49c-2.65-2.26-5.18-4.64-7.9-6.81a5.84 5.84 0 0 1-2.31-4.78c-.73-18.32-1.55-36.64-2.35-55q-.22-3.16-.41-6.38a3.3 3.3 0 0 1 .88-2.85A3.87 3.87 0 0 0 2 114c-.23-4.3-.4-8.6-.59-12.89C1 90.9.52 80.66 0 70.43c0-1.78-.15-3.49 1.48-4.81a2.08 2.08 0 0 0 .62-1.7c0-.72 0-1.43-.08-2.15Q1 40 0 18.17a3.76 3.76 0 0 1 1.17-3.37 2.85 2.85 0 0 0 .89-2.53C2 11 1.92 9.81 1.85 8.58L38.24 7"/></svg>