<svg id="flekk" data-name="Layer 1" xmlns="http://www.w3.org/2000/svg" xmlns:xlink="http://www.w3.org/1999/xlink" viewBox="0 0 389.18 200.99">
  <defs>
    <style>
      .cls-2 {
        fill: #fff;
      }
    </style>

  </defs>
  <title>logoflekk</title>
  <g class="cls-2">
    <path class="cls-3" d="M38.24,7A2,2,0,0,0,40.45,8.8c1.3,0,2.6-.06,3.9-0.12L193.5,2.18c1.08,0,2.17-.08,3.25-0.14a4.58,4.58,0,0,1,3.89,1.11,3.34,3.34,0,0,0,2.7.79l3.25-.12L273.2,0.91c1,0,2-.07,2.93-0.12a4.14,4.14,0,0,1,3.29,1,3.49,3.49,0,0,0,2.7.81L285,2.46,339,0.1c1.08,0,2.17-.08,3.25-0.1a2.69,2.69,0,0,1,2.09.67c1.24,1.31,2.84,1.28,4.49,1.2q8.77-.4,17.55-0.77L369,1a3.56,3.56,0,0,1,2.71.79,4.57,4.57,0,0,0,3.62,1c2.82-.13,5.63-0.26,8.45-0.36,3.55-.12,4,0.24,4.13,3.51,0.43,9.72.84,19.45,1.29,29.17,0.07,1.49,0,2.84-1.32,3.93a2.92,2.92,0,0,0-.78,2.57c0.08,1.64.15,3.28,0.23,4.91,0.28,5.42.53,10.85,0.85,16.26,0.09,1.48,0,2.84-1.24,4-1,.86-0.85,2-0.79,3.18q0.25,5.37.49,10.75c0.24,5.42.47,10.85,0.74,16.27,0.07,1.47.07,2.85-1.25,3.94a2.84,2.84,0,0,0-.8,2.56q1,20.72,1.93,41.44c0,0.72.07,1.43,0.09,2.15a2.64,2.64,0,0,1-.77,2.28c-1.43,1.17-1.39,2.65-1.31,4.23,0.42,8.7.79,17.4,1.17,26.1a3.67,3.67,0,0,0,0,.61c0.49,2.24-.85,3.7-2.43,5a1.32,1.32,0,0,1-1.78.08c-1.49-1.46-3.34-1.22-5.18-1.14q-9.1.39-18.2,0.8c-1.65.08-3.26,0.13-4.5-1.2a1.72,1.72,0,0,0-1.15-.5c-1.85.06-3-1.09-4.14-2.12s-2.2-2-3.34-2.9-1.6-.82-2.52,0c-0.46.43-.89,0.9-1.32,1.37-0.29.31-.53,0.66-0.85,0.94a2.2,2.2,0,0,1-1,.7c-2.77.14-4.21,3.42-7.32,2.78a8.05,8.05,0,0,0-1.94.08,3.54,3.54,0,0,0-2.64,1,4.47,4.47,0,0,1-3.51,1.32c-1,0-2,.09-2.92.13L91,196.72c-0.76,0-1.52,0-2.28.1-1.54.1-3,.07-4.24-1.06a1.22,1.22,0,0,0-1.76.07c-1.22,1.31-2.8,1.39-4.45,1.46q-11.86.49-23.72,1l-2.92.15a4.4,4.4,0,0,0-2.63,1c-2.3,1.83-4.77,2-7,.42a5.49,5.49,0,0,0-3.66-.88l-14.95.65c-0.87,0-1.73.09-2.6,0.11-3,.06-5.22-1.35-6.08-4a5.28,5.28,0,0,0-1.74-2.49c-2.65-2.26-5.18-4.64-7.9-6.81a5.84,5.84,0,0,1-2.31-4.78c-0.73-18.32-1.55-36.64-2.35-55Q0.19,123.5,0,120.28a3.3,3.3,0,0,1,.88-2.85A3.87,3.87,0,0,0,2,114c-0.23-4.3-.4-8.6-0.59-12.89C1,90.9.52,80.66,0,70.43,0,68.65-.15,66.94,1.48,65.62a2.08,2.08,0,0,0,.62-1.7c0-.72,0-1.43-0.08-2.15Q1,40,0,18.17A3.76,3.76,0,0,1,1.17,14.8a2.85,2.85,0,0,0,.89-2.53C2,11,1.92,9.81,1.85,8.58L38.24,7"/>
  </g>
</svg>
