<svg xmlns="http://www.w3.org/2000/svg" viewBox="0 0 122.02 127.24"><title>coffee</title><path d="M69 83.21c-.57 4.13-1.89 15.32-14.35 27.89-7.06 7.14-17.48 13.71-26.79 15.41-7.79 1.42-16.94.89-22.75-7.51-7.57-10.92-2.53-31.38 5.81-43 8.77-12.14 21.87-21.5 36.48-22.39 10.65-.66 18.1 2.45 22 6.2A98.4 98.4 0 0 1 84.29 57c13.42-1.66 26.79-6.68 27.2-14.42S101.84 34.07 93 35c-18.4 1.89-42.9 11.9-61.39 13.58-10.77 1-29.81 1.78-31.4-9.75C-1.06 29.75 11.74 23 22.73 21.08c16-2.84 33.36-5.31 40.72-9.31 3.73-2 5.38-3.79 5.38-7A5.71 5.71 0 0 0 66 .11c.46.2 13.46 1.57 13.44 9.3 0 4.58-3.24 12.93-24.08 15-12.5 1.25-27.92 2.32-27.55 8.51.25 4 7.28 5.48 15.79 3.89C57.57 34.2 67 28.44 78.92 25c21.41-6.24 42.89-1.92 43 17.8 0 11.35-6.77 19.24-14.18 24.09S89.06 77 72.82 78.46c-4.48.47-8.76.94-13 1.45a40.37 40.37 0 0 0-21.78 8.56c2.07-5 6.12-13.32 7.51-16 2-4 4.17-11.62-2.28-8.68-4 1.81-3.62 17.26-9.93 26.71-1.34 2-17.2 23.02-11.34 26.05 4.06 2.11 5.59-4.81 6.71-8.13 4.74-14 11.56-17.81 13.17-18.8a44.61 44.61 0 0 1 16.56-5.53c3.78-.42 5.64-1 10.53-.88"/></svg>