<svg xmlns="http://www.w3.org/2000/svg" viewBox="0 0 595.28 595.28"><title>insta</title><path d="M535.68 134c0 8.85-6 14.81-14.81 14.81h-59.6c-8.85 0-14.81-6-14.81-14.81V74.41c0-8.85 6-14.81 14.81-14.81h59.6c8.85 0 14.81 6 14.81 14.81V134zM74.41 535.68c-8.85 0-14.81-6-14.81-14.81v-253h62.47c-3.05 9-3.05 20.95-3.05 29.8 0 98.26 80.36 178.62 178.62 178.62s178.62-80.39 178.62-178.65c0-8.85 0-20.8-3.05-29.8h62.47v253c0 8.85-6 14.81-14.81 14.81H74.41zm223.23-357.06c65.56 0 119 53.46 119 119s-53.46 119-119 119-119-53.46-119-119 53.44-119 119-119zM535.68 0H59.6A59.69 59.69 0 0 0 0 59.6v476.08a59.69 59.69 0 0 0 59.6 59.6h476.08a59.69 59.69 0 0 0 59.6-59.6V59.6A59.69 59.69 0 0 0 535.68 0z"/></svg>