<svg xmlns="http://www.w3.org/2000/svg" viewBox="0 0 62.92 74.98"><title>user</title><path d="M50.33 27.74c1.54-8.18.14-16.78-5-22C42.43 2.27 37.37 0 31.59 0a18.56 18.56 0 0 0-12.5 4.44c-7 5.74-6.55 16.66-5.92 23.69.9 9.91-2.79 13.61-2.79 13.61a35.71 35.71 0 0 0 12.11-3c9.18 8.11 17.92.2 17.92.2 3.81 2.5 11.62 2.8 11.62 2.8s-3.6-3.89-1.7-14zm-8.89 4.7c-4.87 8.51-13.89 6.76-18.59 2.18l-.35-.35-.05-.06c-.17-.21-.33-.35-.45-.54s-.49-.63-.72-1l-.28-.26a.15.15 0 0 0 0-.06l-.22-.35a18.3 18.3 0 0 1-1.72-3.86c-.1-.35-.2-.69-.27-1l-.07-.29v-.2a.85.85 0 0 1 0-.12c-.77-3.87 0-7.24 2.18-7.52a12.33 12.33 0 0 0 6.1-3c-2.8 3.8-1.3 8.4-1.3 8.4s-.3-2.6 5.81-5 7.31-5.71 7.31-5.71c2 5.41 5.9 5.71 5.9 5.71s-.08 7.42-3.28 13.03zM42.54 45h-2.41l-1.05 1-7.58 7.4-8.79-8.4h-2.34C9.1 45 0 53.4 0 64.68V68.63C.42 72.54 3.22 75 6.32 75H56.6c3.1 0 5.9-2.44 6.31-6.34v-3.98C62.92 53.4 53.82 45 42.54 45z"/></svg>